# xmcd
#
# Track frame offsets: 
#        150
#        12158
#        26561
#        36058
#        49487
#        59356
#        75062
#        85581
#        94833
#        107323
#        120957
#        136443
#        153546
#        165577
#        177785
#
# Disc length: 2755 seconds
#
# Revision: 13
# Processed by: cddbd v1.5.2PL0 Copyright (c) Steve Scherf et al.
# Submitted via: ExactAudioCopy v1.0b1
#
DISCID=a60ac10f
DTITLE=The Beatles - Yellow Submarine Songtrack
DYEAR=1999
DGENRE=Rock
TTITLE0=Yellow Submarine
TTITLE1=Hey Bulldog
TTITLE2=Eleanor Rigby
TTITLE3=Love You To
TTITLE4=All Together Now
TTITLE5=Lucy In The Sky With Diamonds
TTITLE6=Think For Yourself
TTITLE7=Sgt. Pepper's Lonely Hearts Club Band
TTITLE8=With A Little Help From My Friends
TTITLE9=Baby You're A Rich Man
TTITLE10=Only A Northern Song
TTITLE11=All You Need Is Love
TTITLE12=When I'm Sixty Four
TTITLE13=Nowhere Man
TTITLE14=It's All Too Much
EXTD=
EXTT0=
EXTT1=
EXTT2=
EXTT3=
EXTT4=
EXTT5=
EXTT6=
EXTT7=
EXTT8=
EXTT9=
EXTT10=
EXTT11=
EXTT12=
EXTT13=
EXTT14=
PLAYORDER=
